<mxfile host="Electron" modified="2023-04-05T04:32:05.898Z" agent="Mozilla/5.0 (Windows NT 10.0; Win64; x64) AppleWebKit/537.36 (KHTML, like Gecko) draw.io/21.1.2 Chrome/106.0.5249.199 Electron/21.4.3 Safari/537.36" etag="inxcEOVzzAqORXhdA-Qr" version="21.1.2" type="device">
  <diagram name="Page-1" id="Pw_LlT8iJ6Kt1lNkO4Q0">
    <mxGraphModel dx="651" dy="826" grid="1" gridSize="10" guides="1" tooltips="1" connect="1" arrows="1" fold="1" page="1" pageScale="1" pageWidth="850" pageHeight="1100" math="0" shadow="0">
      <root>
        <mxCell id="0" />
        <mxCell id="1" parent="0" />
        <mxCell id="-ofy4VCtqgIwbsHvtE8e-1" value="" style="rounded=0;whiteSpace=wrap;html=1;" parent="1" vertex="1">
          <mxGeometry width="280" height="80" as="geometry" />
        </mxCell>
        <mxCell id="-ofy4VCtqgIwbsHvtE8e-2" value="&lt;div style=&quot;text-align: left; font-size: 15px;&quot;&gt;&lt;span style=&quot;background-color: initial;&quot;&gt;&lt;font style=&quot;font-size: 15px;&quot;&gt;Trương Văn Khải - 21520274&lt;/font&gt;&lt;/span&gt;&lt;/div&gt;&lt;div style=&quot;text-align: left; font-size: 15px;&quot;&gt;&lt;span style=&quot;background-color: initial;&quot;&gt;&lt;font style=&quot;font-size: 15px;&quot;&gt;Lê Yến Nhi - 21522427&lt;/font&gt;&lt;/span&gt;&lt;/div&gt;&lt;div style=&quot;text-align: left; font-size: 15px;&quot;&gt;&lt;span style=&quot;background-color: initial;&quot;&gt;&lt;font style=&quot;font-size: 15px;&quot;&gt;Ngô Phúc Danh - 21521924&lt;/font&gt;&lt;/span&gt;&lt;/div&gt;&lt;div style=&quot;text-align: left; font-size: 15px;&quot;&gt;&lt;span style=&quot;background-color: initial;&quot;&gt;&lt;font style=&quot;font-size: 15px;&quot;&gt;Lê Ngô Minh Đức - 21520195&lt;/font&gt;&lt;/span&gt;&lt;/div&gt;" style="text;html=1;strokeColor=none;fillColor=none;align=center;verticalAlign=middle;whiteSpace=wrap;rounded=0;" parent="1" vertex="1">
          <mxGeometry width="280" height="80" as="geometry" />
        </mxCell>
        <mxCell id="QIYEwkGV4SATtuJo1eIZ-1" value="&lt;b&gt;&lt;font style=&quot;font-size: 18px;&quot;&gt;Department Store&lt;/font&gt;&lt;/b&gt;" style="text;html=1;align=center;verticalAlign=middle;resizable=0;points=[];autosize=1;strokeColor=none;fillColor=none;" parent="1" vertex="1">
          <mxGeometry x="385" y="10" width="170" height="40" as="geometry" />
        </mxCell>
        <mxCell id="QIYEwkGV4SATtuJo1eIZ-2" value="&lt;b&gt;STORES&lt;/b&gt;" style="whiteSpace=wrap;html=1;aspect=fixed;" parent="1" vertex="1">
          <mxGeometry x="110" y="150" width="80" height="80" as="geometry" />
        </mxCell>
        <mxCell id="QIYEwkGV4SATtuJo1eIZ-4" value="&lt;u&gt;Store ID&lt;/u&gt;" style="ellipse;whiteSpace=wrap;html=1;" parent="1" vertex="1">
          <mxGeometry x="10" y="90" width="80" height="50" as="geometry" />
        </mxCell>
        <mxCell id="QIYEwkGV4SATtuJo1eIZ-5" value="Address" style="ellipse;whiteSpace=wrap;html=1;" parent="1" vertex="1">
          <mxGeometry x="190" y="90" width="80" height="50" as="geometry" />
        </mxCell>
        <mxCell id="QIYEwkGV4SATtuJo1eIZ-6" value="Manager ID" style="ellipse;whiteSpace=wrap;html=1;" parent="1" vertex="1">
          <mxGeometry x="10" y="150" width="80" height="50" as="geometry" />
        </mxCell>
        <mxCell id="QIYEwkGV4SATtuJo1eIZ-7" value="" style="endArrow=none;html=1;rounded=0;entryX=0;entryY=0.5;entryDx=0;entryDy=0;" parent="1" target="QIYEwkGV4SATtuJo1eIZ-5" edge="1">
          <mxGeometry width="50" height="50" relative="1" as="geometry">
            <mxPoint x="150" y="150" as="sourcePoint" />
            <mxPoint x="200" y="100" as="targetPoint" />
          </mxGeometry>
        </mxCell>
        <mxCell id="QIYEwkGV4SATtuJo1eIZ-8" value="" style="endArrow=none;html=1;rounded=0;entryX=1.01;entryY=0.696;entryDx=0;entryDy=0;entryPerimeter=0;" parent="1" target="QIYEwkGV4SATtuJo1eIZ-4" edge="1">
          <mxGeometry width="50" height="50" relative="1" as="geometry">
            <mxPoint x="140" y="150" as="sourcePoint" />
            <mxPoint x="190" y="100" as="targetPoint" />
          </mxGeometry>
        </mxCell>
        <mxCell id="QIYEwkGV4SATtuJo1eIZ-9" value="" style="endArrow=none;html=1;rounded=0;entryX=1.01;entryY=0.696;entryDx=0;entryDy=0;entryPerimeter=0;exitX=0;exitY=0.5;exitDx=0;exitDy=0;" parent="1" source="QIYEwkGV4SATtuJo1eIZ-2" edge="1">
          <mxGeometry width="50" height="50" relative="1" as="geometry">
            <mxPoint x="139" y="203" as="sourcePoint" />
            <mxPoint x="90" y="178" as="targetPoint" />
          </mxGeometry>
        </mxCell>
        <mxCell id="QIYEwkGV4SATtuJo1eIZ-10" value="LOCATED" style="rhombus;whiteSpace=wrap;html=1;" parent="1" vertex="1">
          <mxGeometry x="360" y="150" width="80" height="80" as="geometry" />
        </mxCell>
        <mxCell id="QIYEwkGV4SATtuJo1eIZ-11" value="" style="endArrow=none;html=1;rounded=0;entryX=0;entryY=0.5;entryDx=0;entryDy=0;" parent="1" target="QIYEwkGV4SATtuJo1eIZ-10" edge="1">
          <mxGeometry width="50" height="50" relative="1" as="geometry">
            <mxPoint x="190" y="190" as="sourcePoint" />
            <mxPoint x="240" y="140" as="targetPoint" />
          </mxGeometry>
        </mxCell>
        <mxCell id="QIYEwkGV4SATtuJo1eIZ-12" value="&lt;b&gt;CITIES&lt;/b&gt;" style="whiteSpace=wrap;html=1;aspect=fixed;" parent="1" vertex="1">
          <mxGeometry x="610" y="150" width="80" height="80" as="geometry" />
        </mxCell>
        <mxCell id="QIYEwkGV4SATtuJo1eIZ-13" value="locationHQad" style="ellipse;whiteSpace=wrap;html=1;" parent="1" vertex="1">
          <mxGeometry x="550" y="80" width="80" height="50" as="geometry" />
        </mxCell>
        <mxCell id="QIYEwkGV4SATtuJo1eIZ-14" value="&lt;u&gt;cityName&lt;/u&gt;" style="ellipse;whiteSpace=wrap;html=1;" parent="1" vertex="1">
          <mxGeometry x="660" y="80" width="80" height="50" as="geometry" />
        </mxCell>
        <mxCell id="QIYEwkGV4SATtuJo1eIZ-15" value="porvince" style="ellipse;whiteSpace=wrap;html=1;" parent="1" vertex="1">
          <mxGeometry x="750" y="120" width="80" height="50" as="geometry" />
        </mxCell>
        <mxCell id="QIYEwkGV4SATtuJo1eIZ-16" value="" style="endArrow=none;html=1;rounded=0;entryX=1;entryY=1;entryDx=0;entryDy=0;" parent="1" target="QIYEwkGV4SATtuJo1eIZ-13" edge="1">
          <mxGeometry width="50" height="50" relative="1" as="geometry">
            <mxPoint x="620" y="150" as="sourcePoint" />
            <mxPoint x="670" y="100" as="targetPoint" />
          </mxGeometry>
        </mxCell>
        <mxCell id="QIYEwkGV4SATtuJo1eIZ-17" value="" style="endArrow=none;html=1;rounded=0;entryX=0.5;entryY=1;entryDx=0;entryDy=0;" parent="1" target="QIYEwkGV4SATtuJo1eIZ-14" edge="1">
          <mxGeometry width="50" height="50" relative="1" as="geometry">
            <mxPoint x="680" y="151" as="sourcePoint" />
            <mxPoint x="678" y="124" as="targetPoint" />
          </mxGeometry>
        </mxCell>
        <mxCell id="QIYEwkGV4SATtuJo1eIZ-18" value="" style="endArrow=none;html=1;rounded=0;entryX=0;entryY=1;entryDx=0;entryDy=0;" parent="1" target="QIYEwkGV4SATtuJo1eIZ-15" edge="1">
          <mxGeometry width="50" height="50" relative="1" as="geometry">
            <mxPoint x="690" y="200" as="sourcePoint" />
            <mxPoint x="740" y="150" as="targetPoint" />
          </mxGeometry>
        </mxCell>
        <mxCell id="QIYEwkGV4SATtuJo1eIZ-19" value="" style="endArrow=none;html=1;rounded=0;entryX=0;entryY=0.5;entryDx=0;entryDy=0;" parent="1" target="QIYEwkGV4SATtuJo1eIZ-12" edge="1">
          <mxGeometry width="50" height="50" relative="1" as="geometry">
            <mxPoint x="440" y="190" as="sourcePoint" />
            <mxPoint x="490" y="140" as="targetPoint" />
          </mxGeometry>
        </mxCell>
        <mxCell id="QIYEwkGV4SATtuJo1eIZ-20" value="HOLD" style="rhombus;whiteSpace=wrap;html=1;" parent="1" vertex="1">
          <mxGeometry x="110" y="320" width="80" height="80" as="geometry" />
        </mxCell>
        <mxCell id="QIYEwkGV4SATtuJo1eIZ-21" value="&lt;b&gt;ITEMS&lt;/b&gt;" style="whiteSpace=wrap;html=1;aspect=fixed;" parent="1" vertex="1">
          <mxGeometry x="110" y="480" width="80" height="80" as="geometry" />
        </mxCell>
        <mxCell id="QIYEwkGV4SATtuJo1eIZ-24" value="" style="endArrow=none;html=1;rounded=0;entryX=0.5;entryY=1;entryDx=0;entryDy=0;" parent="1" target="QIYEwkGV4SATtuJo1eIZ-2" edge="1">
          <mxGeometry width="50" height="50" relative="1" as="geometry">
            <mxPoint x="150" y="320" as="sourcePoint" />
            <mxPoint x="200" y="270" as="targetPoint" />
          </mxGeometry>
        </mxCell>
        <mxCell id="QIYEwkGV4SATtuJo1eIZ-25" value="" style="endArrow=none;html=1;rounded=0;exitX=0.5;exitY=0;exitDx=0;exitDy=0;" parent="1" source="QIYEwkGV4SATtuJo1eIZ-21" edge="1">
          <mxGeometry width="50" height="50" relative="1" as="geometry">
            <mxPoint x="100" y="450" as="sourcePoint" />
            <mxPoint x="150" y="400" as="targetPoint" />
          </mxGeometry>
        </mxCell>
        <mxCell id="QIYEwkGV4SATtuJo1eIZ-26" value="&lt;u&gt;Item ID&lt;/u&gt;" style="ellipse;whiteSpace=wrap;html=1;" parent="1" vertex="1">
          <mxGeometry x="10" y="450" width="80" height="50" as="geometry" />
        </mxCell>
        <mxCell id="QIYEwkGV4SATtuJo1eIZ-27" value="Note" style="ellipse;whiteSpace=wrap;html=1;" parent="1" vertex="1">
          <mxGeometry x="10" y="525" width="80" height="50" as="geometry" />
        </mxCell>
        <mxCell id="QIYEwkGV4SATtuJo1eIZ-28" value="Size" style="ellipse;whiteSpace=wrap;html=1;" parent="1" vertex="1">
          <mxGeometry x="10" y="600" width="80" height="50" as="geometry" />
        </mxCell>
        <mxCell id="QIYEwkGV4SATtuJo1eIZ-29" value="Color" style="ellipse;whiteSpace=wrap;html=1;" parent="1" vertex="1">
          <mxGeometry x="110" y="600" width="80" height="50" as="geometry" />
        </mxCell>
        <mxCell id="QIYEwkGV4SATtuJo1eIZ-30" value="" style="endArrow=none;html=1;rounded=0;entryX=0.97;entryY=0.648;entryDx=0;entryDy=0;entryPerimeter=0;" parent="1" target="QIYEwkGV4SATtuJo1eIZ-26" edge="1">
          <mxGeometry width="50" height="50" relative="1" as="geometry">
            <mxPoint x="110" y="500" as="sourcePoint" />
            <mxPoint x="160" y="450" as="targetPoint" />
          </mxGeometry>
        </mxCell>
        <mxCell id="QIYEwkGV4SATtuJo1eIZ-31" value="" style="endArrow=none;html=1;rounded=0;entryX=1;entryY=0.5;entryDx=0;entryDy=0;" parent="1" target="QIYEwkGV4SATtuJo1eIZ-27" edge="1">
          <mxGeometry width="50" height="50" relative="1" as="geometry">
            <mxPoint x="110" y="530" as="sourcePoint" />
            <mxPoint x="98" y="492" as="targetPoint" />
          </mxGeometry>
        </mxCell>
        <mxCell id="QIYEwkGV4SATtuJo1eIZ-32" value="" style="endArrow=none;html=1;rounded=0;entryX=1;entryY=0;entryDx=0;entryDy=0;exitX=0.25;exitY=1;exitDx=0;exitDy=0;" parent="1" source="QIYEwkGV4SATtuJo1eIZ-21" target="QIYEwkGV4SATtuJo1eIZ-28" edge="1">
          <mxGeometry width="50" height="50" relative="1" as="geometry">
            <mxPoint x="120" y="540" as="sourcePoint" />
            <mxPoint x="100" y="560" as="targetPoint" />
          </mxGeometry>
        </mxCell>
        <mxCell id="QIYEwkGV4SATtuJo1eIZ-33" value="" style="endArrow=none;html=1;rounded=0;exitX=0.75;exitY=1;exitDx=0;exitDy=0;" parent="1" source="QIYEwkGV4SATtuJo1eIZ-21" target="QIYEwkGV4SATtuJo1eIZ-29" edge="1">
          <mxGeometry width="50" height="50" relative="1" as="geometry">
            <mxPoint x="140" y="570" as="sourcePoint" />
            <mxPoint x="88" y="617" as="targetPoint" />
          </mxGeometry>
        </mxCell>
        <mxCell id="QIYEwkGV4SATtuJo1eIZ-34" value="IN CITIES" style="rhombus;whiteSpace=wrap;html=1;" parent="1" vertex="1">
          <mxGeometry x="360" y="320" width="80" height="80" as="geometry" />
        </mxCell>
        <mxCell id="QIYEwkGV4SATtuJo1eIZ-38" value="" style="endArrow=none;html=1;rounded=0;entryX=0.5;entryY=1;entryDx=0;entryDy=0;" parent="1" target="QIYEwkGV4SATtuJo1eIZ-34" edge="1">
          <mxGeometry width="50" height="50" relative="1" as="geometry">
            <mxPoint x="170" y="480" as="sourcePoint" />
            <mxPoint x="220" y="430" as="targetPoint" />
            <Array as="points">
              <mxPoint x="170" y="450" />
              <mxPoint x="400" y="450" />
            </Array>
          </mxGeometry>
        </mxCell>
        <mxCell id="QIYEwkGV4SATtuJo1eIZ-39" value="ORDERING ITEM" style="rhombus;whiteSpace=wrap;html=1;" parent="1" vertex="1">
          <mxGeometry x="350" y="480" width="100" height="80" as="geometry" />
        </mxCell>
        <mxCell id="QIYEwkGV4SATtuJo1eIZ-40" value="" style="endArrow=none;html=1;rounded=0;entryX=0;entryY=0.5;entryDx=0;entryDy=0;exitX=1;exitY=0.5;exitDx=0;exitDy=0;" parent="1" source="QIYEwkGV4SATtuJo1eIZ-21" target="QIYEwkGV4SATtuJo1eIZ-39" edge="1">
          <mxGeometry width="50" height="50" relative="1" as="geometry">
            <mxPoint x="190" y="525" as="sourcePoint" />
            <mxPoint x="240" y="475" as="targetPoint" />
          </mxGeometry>
        </mxCell>
        <mxCell id="QIYEwkGV4SATtuJo1eIZ-43" value="&lt;b&gt;ORDERED&lt;/b&gt;" style="whiteSpace=wrap;html=1;aspect=fixed;" parent="1" vertex="1">
          <mxGeometry x="540" y="480" width="80" height="80" as="geometry" />
        </mxCell>
        <mxCell id="QIYEwkGV4SATtuJo1eIZ-44" value="" style="endArrow=none;html=1;rounded=0;exitX=1;exitY=0.5;exitDx=0;exitDy=0;entryX=0;entryY=0.5;entryDx=0;entryDy=0;" parent="1" source="QIYEwkGV4SATtuJo1eIZ-39" target="QIYEwkGV4SATtuJo1eIZ-43" edge="1">
          <mxGeometry width="50" height="50" relative="1" as="geometry">
            <mxPoint x="490" y="500" as="sourcePoint" />
            <mxPoint x="540" y="450" as="targetPoint" />
          </mxGeometry>
        </mxCell>
        <mxCell id="QIYEwkGV4SATtuJo1eIZ-45" value="&lt;u&gt;Order Num&lt;/u&gt;" style="ellipse;whiteSpace=wrap;html=1;" parent="1" vertex="1">
          <mxGeometry x="540" y="400" width="80" height="50" as="geometry" />
        </mxCell>
        <mxCell id="QIYEwkGV4SATtuJo1eIZ-46" value="" style="endArrow=none;html=1;rounded=0;entryX=0.5;entryY=1;entryDx=0;entryDy=0;" parent="1" source="QIYEwkGV4SATtuJo1eIZ-43" target="QIYEwkGV4SATtuJo1eIZ-45" edge="1">
          <mxGeometry width="50" height="50" relative="1" as="geometry">
            <mxPoint x="490" y="500" as="sourcePoint" />
            <mxPoint x="540" y="450" as="targetPoint" />
          </mxGeometry>
        </mxCell>
        <mxCell id="QIYEwkGV4SATtuJo1eIZ-47" value="" style="endArrow=none;html=1;rounded=0;entryX=0.601;entryY=1.018;entryDx=0;entryDy=0;entryPerimeter=0;exitX=0.75;exitY=0;exitDx=0;exitDy=0;" parent="1" source="QIYEwkGV4SATtuJo1eIZ-43" target="QIYEwkGV4SATtuJo1eIZ-48" edge="1">
          <mxGeometry width="50" height="50" relative="1" as="geometry">
            <mxPoint x="590" y="490" as="sourcePoint" />
            <mxPoint x="590" y="460" as="targetPoint" />
          </mxGeometry>
        </mxCell>
        <mxCell id="QIYEwkGV4SATtuJo1eIZ-48" value="Order Date" style="ellipse;whiteSpace=wrap;html=1;" parent="1" vertex="1">
          <mxGeometry x="640" y="400" width="80" height="50" as="geometry" />
        </mxCell>
        <mxCell id="QIYEwkGV4SATtuJo1eIZ-49" value="PLACE" style="rhombus;whiteSpace=wrap;html=1;" parent="1" vertex="1">
          <mxGeometry x="730" y="480" width="100" height="80" as="geometry" />
        </mxCell>
        <mxCell id="QIYEwkGV4SATtuJo1eIZ-50" value="" style="endArrow=none;html=1;rounded=0;exitX=1;exitY=0.5;exitDx=0;exitDy=0;entryX=0;entryY=0.5;entryDx=0;entryDy=0;" parent="1" source="QIYEwkGV4SATtuJo1eIZ-43" target="QIYEwkGV4SATtuJo1eIZ-49" edge="1">
          <mxGeometry width="50" height="50" relative="1" as="geometry">
            <mxPoint x="630" y="519.41" as="sourcePoint" />
            <mxPoint x="720" y="519.41" as="targetPoint" />
          </mxGeometry>
        </mxCell>
        <mxCell id="QIYEwkGV4SATtuJo1eIZ-51" value="&lt;b&gt;CUSTOMERS&lt;/b&gt;" style="whiteSpace=wrap;html=1;aspect=fixed;" parent="1" vertex="1">
          <mxGeometry x="740" y="670" width="80" height="80" as="geometry" />
        </mxCell>
        <mxCell id="QIYEwkGV4SATtuJo1eIZ-52" value="" style="endArrow=none;html=1;rounded=0;entryX=0.5;entryY=1;entryDx=0;entryDy=0;exitX=0.5;exitY=0;exitDx=0;exitDy=0;" parent="1" source="QIYEwkGV4SATtuJo1eIZ-51" target="QIYEwkGV4SATtuJo1eIZ-49" edge="1">
          <mxGeometry width="50" height="50" relative="1" as="geometry">
            <mxPoint x="490" y="670" as="sourcePoint" />
            <mxPoint x="540" y="620" as="targetPoint" />
          </mxGeometry>
        </mxCell>
        <mxCell id="QIYEwkGV4SATtuJo1eIZ-54" value="&lt;u&gt;Customer ID&lt;/u&gt;" style="ellipse;whiteSpace=wrap;html=1;" parent="1" vertex="1">
          <mxGeometry x="610" y="650" width="80" height="50" as="geometry" />
        </mxCell>
        <mxCell id="QIYEwkGV4SATtuJo1eIZ-55" value="Customer Name" style="ellipse;whiteSpace=wrap;html=1;" parent="1" vertex="1">
          <mxGeometry x="610" y="710" width="80" height="50" as="geometry" />
        </mxCell>
        <mxCell id="QIYEwkGV4SATtuJo1eIZ-56" value="Address" style="ellipse;whiteSpace=wrap;html=1;" parent="1" vertex="1">
          <mxGeometry x="650" y="800" width="80" height="50" as="geometry" />
        </mxCell>
        <mxCell id="QIYEwkGV4SATtuJo1eIZ-57" value="Phone" style="ellipse;whiteSpace=wrap;html=1;" parent="1" vertex="1">
          <mxGeometry x="740" y="800" width="80" height="50" as="geometry" />
        </mxCell>
        <mxCell id="QIYEwkGV4SATtuJo1eIZ-58" value="" style="endArrow=none;html=1;rounded=0;entryX=-0.001;entryY=0.132;entryDx=0;entryDy=0;entryPerimeter=0;" parent="1" target="QIYEwkGV4SATtuJo1eIZ-51" edge="1">
          <mxGeometry width="50" height="50" relative="1" as="geometry">
            <mxPoint x="690" y="670" as="sourcePoint" />
            <mxPoint x="710" y="730" as="targetPoint" />
          </mxGeometry>
        </mxCell>
        <mxCell id="QIYEwkGV4SATtuJo1eIZ-59" value="" style="endArrow=none;html=1;rounded=0;entryX=0;entryY=0.5;entryDx=0;entryDy=0;exitX=1;exitY=0.5;exitDx=0;exitDy=0;" parent="1" source="QIYEwkGV4SATtuJo1eIZ-55" target="QIYEwkGV4SATtuJo1eIZ-51" edge="1">
          <mxGeometry width="50" height="50" relative="1" as="geometry">
            <mxPoint x="490" y="670" as="sourcePoint" />
            <mxPoint x="540" y="620" as="targetPoint" />
          </mxGeometry>
        </mxCell>
        <mxCell id="QIYEwkGV4SATtuJo1eIZ-60" value="" style="endArrow=none;html=1;rounded=0;entryX=-0.025;entryY=0.861;entryDx=0;entryDy=0;entryPerimeter=0;exitX=0.5;exitY=0;exitDx=0;exitDy=0;" parent="1" source="QIYEwkGV4SATtuJo1eIZ-56" target="QIYEwkGV4SATtuJo1eIZ-51" edge="1">
          <mxGeometry width="50" height="50" relative="1" as="geometry">
            <mxPoint x="490" y="670" as="sourcePoint" />
            <mxPoint x="540" y="620" as="targetPoint" />
          </mxGeometry>
        </mxCell>
        <mxCell id="QIYEwkGV4SATtuJo1eIZ-61" value="" style="endArrow=none;html=1;rounded=0;entryX=0.75;entryY=1;entryDx=0;entryDy=0;exitX=0.599;exitY=-0.074;exitDx=0;exitDy=0;exitPerimeter=0;" parent="1" source="QIYEwkGV4SATtuJo1eIZ-57" target="QIYEwkGV4SATtuJo1eIZ-51" edge="1">
          <mxGeometry width="50" height="50" relative="1" as="geometry">
            <mxPoint x="780" y="790" as="sourcePoint" />
            <mxPoint x="540" y="620" as="targetPoint" />
          </mxGeometry>
        </mxCell>
        <mxCell id="QIYEwkGV4SATtuJo1eIZ-66" value="1" style="text;html=1;align=center;verticalAlign=middle;resizable=0;points=[];autosize=1;strokeColor=none;fillColor=none;" parent="1" vertex="1">
          <mxGeometry x="585" y="165" width="30" height="30" as="geometry" />
        </mxCell>
        <mxCell id="QIYEwkGV4SATtuJo1eIZ-67" value="N" style="text;html=1;align=center;verticalAlign=middle;resizable=0;points=[];autosize=1;strokeColor=none;fillColor=none;" parent="1" vertex="1">
          <mxGeometry x="185" y="165" width="30" height="30" as="geometry" />
        </mxCell>
        <mxCell id="QIYEwkGV4SATtuJo1eIZ-68" value="N" style="text;html=1;align=center;verticalAlign=middle;resizable=0;points=[];autosize=1;strokeColor=none;fillColor=none;" parent="1" vertex="1">
          <mxGeometry x="145" y="235" width="30" height="30" as="geometry" />
        </mxCell>
        <mxCell id="QIYEwkGV4SATtuJo1eIZ-69" value="N" style="text;html=1;align=center;verticalAlign=middle;resizable=0;points=[];autosize=1;strokeColor=none;fillColor=none;" parent="1" vertex="1">
          <mxGeometry x="115" y="450" width="30" height="30" as="geometry" />
        </mxCell>
        <mxCell id="QIYEwkGV4SATtuJo1eIZ-70" value="N" style="text;html=1;align=center;verticalAlign=middle;resizable=0;points=[];autosize=1;strokeColor=none;fillColor=none;" parent="1" vertex="1">
          <mxGeometry x="375" y="405" width="30" height="30" as="geometry" />
        </mxCell>
        <mxCell id="QIYEwkGV4SATtuJo1eIZ-71" value="" style="endArrow=none;html=1;rounded=0;entryX=0.5;entryY=1;entryDx=0;entryDy=0;" parent="1" target="QIYEwkGV4SATtuJo1eIZ-12" edge="1">
          <mxGeometry width="50" height="50" relative="1" as="geometry">
            <mxPoint x="400" y="320" as="sourcePoint" />
            <mxPoint x="450" y="270" as="targetPoint" />
            <Array as="points">
              <mxPoint x="400" y="280" />
              <mxPoint x="650" y="280" />
            </Array>
          </mxGeometry>
        </mxCell>
        <mxCell id="QIYEwkGV4SATtuJo1eIZ-72" value="N" style="text;html=1;align=center;verticalAlign=middle;resizable=0;points=[];autosize=1;strokeColor=none;fillColor=none;" parent="1" vertex="1">
          <mxGeometry x="405" y="285" width="30" height="30" as="geometry" />
        </mxCell>
        <mxCell id="QIYEwkGV4SATtuJo1eIZ-73" value="N" style="text;html=1;align=center;verticalAlign=middle;resizable=0;points=[];autosize=1;strokeColor=none;fillColor=none;" parent="1" vertex="1">
          <mxGeometry x="195" y="495" width="30" height="30" as="geometry" />
        </mxCell>
        <mxCell id="QIYEwkGV4SATtuJo1eIZ-74" value="N" style="text;html=1;align=center;verticalAlign=middle;resizable=0;points=[];autosize=1;strokeColor=none;fillColor=none;" parent="1" vertex="1">
          <mxGeometry x="505" y="495" width="30" height="30" as="geometry" />
        </mxCell>
        <mxCell id="QIYEwkGV4SATtuJo1eIZ-75" value="N" style="text;html=1;align=center;verticalAlign=middle;resizable=0;points=[];autosize=1;strokeColor=none;fillColor=none;" parent="1" vertex="1">
          <mxGeometry x="615" y="495" width="30" height="30" as="geometry" />
        </mxCell>
        <mxCell id="QIYEwkGV4SATtuJo1eIZ-76" value="1" style="text;html=1;align=center;verticalAlign=middle;resizable=0;points=[];autosize=1;strokeColor=none;fillColor=none;" parent="1" vertex="1">
          <mxGeometry x="785" y="555" width="30" height="30" as="geometry" />
        </mxCell>
      </root>
    </mxGraphModel>
  </diagram>
</mxfile>
